<svg xmlns="http://www.w3.org/2000/svg" viewBox="0 0 128 128"><defs><style>.cls-1{fill:#16e5ef;}.cls-2{fill:#f411e4;}.cls-3,.cls-4{fill:none;}.cls-3{stroke:#000;stroke-miterlimit:10;stroke-width:0.45px;}</style></defs><title>Ativo 2</title><g id="Camada_2" data-name="Camada 2"><g id="SignIn"><circle class="cls-1" cx="64" cy="64" r="21.12"/><path class="cls-2" d="M64,0a64,64,0,1,0,64,64A64,64,0,0,0,64,0Zm0,85.12A21.12,21.12,0,1,1,85.12,64,21.12,21.12,0,0,1,64,85.12Z"/><circle class="cls-3" cx="64" cy="64" r="60.8"/><circle class="cls-3" cx="64" cy="64" r="57.76"/><circle class="cls-3" cx="64" cy="64" r="54.87"/><circle class="cls-3" cx="64" cy="64" r="52.13"/><circle class="cls-3" cx="64" cy="64" r="49.52"/><circle class="cls-3" cx="64" cy="64" r="47.05"/><circle class="cls-3" cx="64" cy="64" r="47.05"/><circle class="cls-3" cx="64" cy="64" r="44.69"/><circle class="cls-4" cx="64" cy="64" r="42.46"/><circle class="cls-3" cx="64" cy="64" r="42.46"/><circle class="cls-3" cx="64" cy="64" r="40.34"/><circle class="cls-3" cx="64" cy="64" r="38.32"/><circle class="cls-3" cx="64" cy="64" r="36.4"/><circle class="cls-3" cx="64" cy="64" r="34.58"/><circle class="cls-3" cx="64" cy="64" r="34.58"/><circle class="cls-3" cx="64" cy="64" r="32.85"/></g></g></svg>