<svg id="Logo" xmlns="http://www.w3.org/2000/svg" viewBox="0 0 2000 2000"><defs><style>.cls-1{fill:#1e1e1e;}.cls-2{fill:#16e5ef;}.cls-3{fill:#f411e4;}.cls-4,.cls-5{fill:none;}.cls-4{stroke:#000;stroke-miterlimit:10;stroke-width:7px;}</style></defs><title>Logo</title><g id="Back"><rect id="Background" class="cls-1" width="2000" height="2000"/></g><g id="Art"><circle class="cls-2" cx="1000" cy="1000" r="330"/><path class="cls-3" d="M1000,0C447.72,0,0,447.72,0,1000S447.72,2000,1000,2000s1000-447.72,1000-1000S1552.28,0,1000,0Zm0,1330c-182.25,0-330-147.75-330-330s147.75-330,330-330,330,147.75,330,330S1182.25,1330,1000,1330Z"/><circle class="cls-4" cx="1000" cy="1000" r="950"/><circle class="cls-4" cx="1000" cy="1000" r="902.5"/><circle class="cls-4" cx="1000" cy="1000" r="857.38"/><circle class="cls-4" cx="1000" cy="1000" r="814.51"/><circle class="cls-4" cx="1000" cy="1000" r="773.78"/><circle class="cls-4" cx="1000" cy="1000" r="735.09"/><circle class="cls-4" cx="1000" cy="1000" r="735.09"/><circle class="cls-4" cx="1000" cy="1000" r="698.34"/><circle class="cls-5" cx="1000" cy="1000" r="663.42"/><circle class="cls-4" cx="1000" cy="1000" r="663.42"/><circle class="cls-4" cx="1000" cy="1000" r="630.25"/><circle class="cls-4" cx="1000" cy="1000" r="598.74"/><circle class="cls-4" cx="1000" cy="1000" r="568.8"/><circle class="cls-4" cx="1000" cy="1000" r="540.36"/><circle class="cls-4" cx="1000" cy="1000" r="540.36"/><circle class="cls-4" cx="1000" cy="1000" r="513.34"/></g></svg>